<!DOCTYPE svg PUBLIC "-//W3C//DTD SVG 1.1//EN" "http://www.w3.org/Graphics/SVG/1.1/DTD/svg11.dtd">
<!-- Uploaded to: SVG Repo, www.svgrepo.com, Transformed by: SVG Repo Mixer Tools -->
<svg width="800px" height="800px" viewBox="0 0 32 32" fill="none" xmlns="http://www.w3.org/2000/svg">
<g id="SVGRepo_bgCarrier" stroke-width="0"/>
<g id="SVGRepo_tracerCarrier" stroke-linecap="round" stroke-linejoin="round"/>
<g id="SVGRepo_iconCarrier"> <path fill-rule="evenodd" clip-rule="evenodd" d="M2 16C2 8.26801 8.26801 2 16 2C23.732 2 30 8.26801 30 16C30 23.732 23.732 30 16 30C8.26801 30 2 23.732 2 16ZM13.172 11.7574C12.7814 11.3668 12.1483 11.3668 11.7577 11.7574C11.3672 12.1479 11.3672 12.7811 11.7577 13.1716L14.5862 16L11.7577 18.8284C11.3672 19.219 11.3672 19.8521 11.7577 20.2427C12.1483 20.6332 12.7814 20.6332 13.172 20.2427L16.0004 17.4142L18.8288 20.2427C19.2193 20.6332 19.8525 20.6332 20.243 20.2427C20.6335 19.8521 20.6335 19.219 20.243 18.8284L17.4146 16L20.243 13.1716C20.6336 12.7811 20.6336 12.1479 20.243 11.7574C19.8525 11.3668 19.2193 11.3668 18.8288 11.7574L16.0004 14.5858L13.172 11.7574Z" fill="#b32323"/> </g>
</svg>