<!DOCTYPE svg PUBLIC "-//W3C//DTD SVG 1.1//EN" "http://www.w3.org/Graphics/SVG/1.1/DTD/svg11.dtd">
<!-- Uploaded to: SVG Repo, www.svgrepo.com, Transformed by: SVG Repo Mixer Tools -->
<svg fill="#493154" height="800px" width="800px" version="1.1" id="Layer_1" xmlns="http://www.w3.org/2000/svg" xmlns:xlink="http://www.w3.org/1999/xlink" viewBox="0 0 512 512" xml:space="preserve" stroke="#493154">
<g id="SVGRepo_bgCarrier" stroke-width="0"/>
<g id="SVGRepo_tracerCarrier" stroke-linecap="round" stroke-linejoin="round"/>
<g id="SVGRepo_iconCarrier"> <g> <g> <path d="M70.85,158.158c-10.764-3.3-20.627-9.197-28.815-17.385c-3.351-3.351-6.287-6.965-8.813-10.771 C12.088,167.225,0,210.226,0,256s12.088,88.776,33.223,125.997c2.526-3.806,5.461-7.419,8.813-10.771 c8.187-8.187,18.05-14.086,28.815-17.386C55.346,324.619,46.545,291.32,46.545,256S55.346,187.38,70.85,158.158z"/> </g> </g> <g> <g> <path d="M478.787,130.019c-2.551,3.826-5.497,7.43-8.822,10.755c-8.187,8.186-18.05,14.085-28.815,17.385 c15.504,29.221,24.305,62.521,24.305,97.842s-8.8,68.619-24.305,97.84c10.764,3.3,20.627,9.199,28.815,17.385 c3.325,3.325,6.271,6.929,8.822,10.755C499.915,344.764,512,301.768,512,256S499.915,167.236,478.787,130.019z"/> </g> </g> <g> <g> <path d="M371.225,469.963c-8.336-8.338-14.108-18.28-17.337-28.838c-29.234,15.52-62.549,24.329-97.888,24.329 s-68.655-8.81-97.887-24.329c-3.23,10.56-9.002,20.502-17.338,28.84c-3.325,3.325-6.929,6.271-10.755,8.822 C167.236,499.915,210.232,512,256,512s88.764-12.085,125.982-33.213C378.154,476.236,374.551,473.29,371.225,469.963z"/> </g> </g> <g> <g> <path d="M256,0c-45.768,0-88.764,12.085-125.981,33.213c3.826,2.551,7.43,5.497,10.755,8.822 c8.338,8.338,14.109,18.28,17.34,28.84c29.232-15.52,62.548-24.329,97.887-24.329s68.655,8.81,97.888,24.329 c3.23-10.56,9-20.502,17.338-28.84c3.325-3.325,6.929-6.271,10.755-8.822C344.764,12.085,301.768,0,256,0z"/> </g> </g> <g> <g> <path d="M437.051,404.139c-4.544-4.544-10.501-6.817-16.457-6.817c-5.956,0-11.913,2.271-16.457,6.817 c-9.087,9.089-9.087,23.824,0,32.912c4.544,4.544,10.501,6.817,16.457,6.817c5.956,0,11.913-2.273,16.457-6.817 C446.14,427.962,446.14,413.227,437.051,404.139z"/> </g> </g> <g> <g> <path d="M107.861,74.949c-4.544-4.544-10.501-6.816-16.457-6.816c-5.956,0-11.913,2.273-16.455,6.816 c-9.089,9.089-9.089,23.824,0,32.912c4.544,4.544,10.501,6.817,16.455,6.817c5.956,0,11.913-2.271,16.457-6.817 C116.95,98.773,116.95,84.038,107.861,74.949z"/> </g> </g> <g> <g> <path d="M437.052,74.949c-4.544-4.544-10.501-6.816-16.457-6.816s-11.913,2.273-16.457,6.816c-9.087,9.089-9.087,23.824,0,32.912 c4.544,4.544,10.501,6.817,16.457,6.817s11.913-2.271,16.457-6.817C446.141,98.773,446.141,84.038,437.052,74.949z"/> </g> </g> <g> <g> <path d="M107.861,404.139c-4.544-4.544-10.501-6.817-16.457-6.817c-5.956,0-11.913,2.271-16.455,6.817 c-9.089,9.089-9.089,23.824,0,32.912c4.544,4.544,10.501,6.817,16.455,6.817c5.956,0,11.913-2.273,16.457-6.817 C116.95,427.962,116.95,413.227,107.861,404.139z"/> </g> </g> <g> <g> <path d="M256,93.091c-89.972,0-162.909,72.937-162.909,162.909S166.028,418.909,256,418.909S418.909,345.972,418.909,256 S345.972,93.091,256,93.091z M370.022,279.273h-67.477v46.545h46.482c-21.251,28.244-55.04,46.545-93.027,46.545 c-56.194,0-103.21-40.042-114.022-93.091h67.477v-46.545h-67.477c10.813-53.049,57.828-93.091,114.022-93.091 c37.987,0,71.776,18.302,93.027,46.545h-77.512v46.545h98.507c1.533,7.522,2.341,15.304,2.341,23.273 S371.555,271.751,370.022,279.273z"/> </g> </g> </g>
</svg>